<?xml version="1.0" encoding="UTF-8"?>
<!-- Generated by Pixelmator Pro 3.3 -->
<svg width="36" height="36" viewBox="0 0 36 36" xmlns="http://www.w3.org/2000/svg" xmlns:xlink="http://www.w3.org/1999/xlink">
    <path id="Path" fill="#e9e9df" stroke="none" d="M 34 24 C 34 25.099998 33.099998 26 32 26 L 4 26 C 2.9 26 2 25.099998 2 24 L 2 2.099998 C 2 1 2.9 0.099998 4 0.099998 L 32 0.099998 C 33.099998 0.099998 34 1 34 2.099998 L 34 24 Z"/>
    <path id="path1" fill="#ffffff" stroke="none" d="M 0 26 L 2 23 L 34 23 L 36 26 Z"/>
    <path id="path2" fill="#231f20" stroke="none" opacity="0.2" d="M 26 15 C 26 19.418278 22.418278 23 18 23 C 13.581722 23 10 19.418278 10 15 C 10 10.581722 13.581722 7 18 7 C 22.418278 7 26 10.581722 26 15 Z"/>
    <g id="Group">
        <linearGradient id="linearGradient1" x1="23.6356" y1="9.761171" x2="12.3644" y2="16.238829" gradientUnits="userSpaceOnUse">
            <stop offset="0" stop-color="#ff9043" stop-opacity="1"/>
            <stop offset="1" stop-color="#5ecaff" stop-opacity="1"/>
        </linearGradient>
        <path id="path3" fill="url(#linearGradient1)" stroke="none" d="M 18 19.5 C 14.4 19.5 11.5 16.599998 11.5 13 C 11.5 9.400002 14.4 6.5 18 6.5 C 21.599998 6.5 24.5 9.400002 24.5 13 C 24.5 16.599998 21.599998 19.5 18 19.5 Z"/>
        <path id="path4" fill="#4f5d73" stroke="none" d="M 18 8 C 20.799999 8 23 10.200001 23 13 C 23 15.799999 20.799999 18 18 18 C 15.200001 18 13 15.799999 13 13 C 13 10.200001 15.200001 8 18 8 M 18 5 C 13.6 5 10 8.599998 10 13 C 10 17.400002 13.6 21 18 21 C 22.400002 21 26 17.400002 26 13 C 26 8.599998 22.400002 5 18 5 L 18 5 Z"/>
    </g>
    <path id="path5" fill="#231f20" stroke="none" opacity="0.2" d="M 9 20.5 C 9 21.880711 7.880713 23 6.5 23 C 5.119287 23 4 21.880711 4 20.5 C 4 19.119289 5.119287 18 6.5 18 C 7.880713 18 9 19.119289 9 20.5 Z"/>
    <path id="path6" fill="#ff634d" stroke="none" d="M 9 18.5 C 9 19.880711 7.880713 21 6.5 21 C 5.119287 21 4 19.880711 4 18.5 C 4 17.119286 5.119287 16 6.5 16 C 7.880713 16 9 17.119286 9 18.5 Z"/>
    <g id="g1">
        <path id="path7" fill="#e0e0d1" stroke="none" d="M 0 26 L 36 26 L 36 28 L 0 28 Z"/>
    </g>
    <path id="path8" fill="#231f20" stroke="none" opacity="0.2" d="M 26 8 C 26 9.099998 26.900002 10 28 10 L 32 10 C 33.099998 10 34 9.099998 34 8 L 34 4 C 34 2.900002 33.099998 2 32 2 L 28 2 C 26.900002 2 26 2.900002 26 4 L 26 8 Z"/>
    <path id="path9" fill="#4f5d73" stroke="none" d="M 26 6 C 26 7.099998 26.900002 8 28 8 L 32 8 C 33.099998 8 34 7.099998 34 6 L 34 2 C 34 0.900002 33.099998 0 32 0 L 28 0 C 26.900002 0 26 0.900002 26 2 L 26 6 Z"/>
    <g id="g2">
        <path id="path10" fill="#4f5d73" stroke="none" d="M 0 30 C 0 33.299999 2.700001 36 6 36 L 30 36 C 33.299999 36 36 33.299999 36 30 L 36 28 L 0 28 L 0 30 Z"/>
    </g>
</svg>
