<?xml version="1.0" encoding="UTF-8"?>
<!-- Generated by Pixelmator Pro 3.3.1 -->
<svg width="90" height="90" viewBox="0 0 90 90" xmlns="http://www.w3.org/2000/svg" xmlns:xlink="http://www.w3.org/1999/xlink">
    <path id="Path" fill="#e9e9df" stroke="none" d="M 61 51 C 61 52.099998 60.099998 53 59 53 L 31 53 C 29.9 53 29 52.099998 29 51 L 29 29.099998 C 29 28 29.9 27.099998 31 27.099998 L 59 27.099998 C 60.099998 27.099998 61 28 61 29.099998 L 61 51 Z"/>
    <path id="path1" fill="#ffffff" stroke="none" d="M 27 53 L 29 50 L 61 50 L 63 53 Z"/>
    <g id="Group">
        <linearGradient id="linearGradient1" x1="50.6356" y1="36.761171" x2="39.3644" y2="43.238829" gradientUnits="userSpaceOnUse">
            <stop offset="0" stop-color="#ff9043" stop-opacity="1"/>
            <stop offset="1" stop-color="#5ecaff" stop-opacity="1"/>
        </linearGradient>
        <path id="path2" fill="url(#linearGradient1)" stroke="none" d="M 45 46.5 C 41.400002 46.5 38.5 43.599998 38.5 40 C 38.5 36.400002 41.400002 33.5 45 33.5 C 48.599998 33.5 51.5 36.400002 51.5 40 C 51.5 43.599998 48.599998 46.5 45 46.5 Z"/>
        <path id="path3" fill="#4f5d73" stroke="none" d="M 45 35 C 47.799999 35 50 37.200001 50 40 C 50 42.799999 47.799999 45 45 45 C 42.200001 45 40 42.799999 40 40 C 40 37.200001 42.200001 35 45 35 M 45 32 C 40.599998 32 37 35.599998 37 40 C 37 44.400002 40.599998 48 45 48 C 49.400002 48 53 44.400002 53 40 C 53 35.599998 49.400002 32 45 32 L 45 32 Z"/>
    </g>
    <path id="path4" fill="#231f20" stroke="none" opacity="0.2" d="M 36 47.5 C 36 48.880711 34.880714 50 33.5 50 C 32.119286 50 31 48.880711 31 47.5 C 31 46.119289 32.119286 45 33.5 45 C 34.880714 45 36 46.119289 36 47.5 Z"/>
    <path id="path5" fill="#ff634d" stroke="none" d="M 36 45.5 C 36 46.880711 34.880714 48 33.5 48 C 32.119286 48 31 46.880711 31 45.5 C 31 44.119286 32.119286 43 33.5 43 C 34.880714 43 36 44.119286 36 45.5 Z"/>
    <g id="g1">
        <path id="path6" fill="#e0e0d1" stroke="none" d="M 27 53 L 63 53 L 63 55 L 27 55 Z"/>
    </g>
    <path id="path7" fill="#231f20" stroke="none" opacity="0.2" d="M 53 35 C 53 36.099998 53.900002 37 55 37 L 59 37 C 60.099998 37 61 36.099998 61 35 L 61 31 C 61 29.900002 60.099998 29 59 29 L 55 29 C 53.900002 29 53 29.900002 53 31 L 53 35 Z"/>
    <path id="path8" fill="#4f5d73" stroke="none" d="M 53 33 C 53 34.099998 53.900002 35 55 35 L 59 35 C 60.099998 35 61 34.099998 61 33 L 61 29 C 61 27.900002 60.099998 27 59 27 L 55 27 C 53.900002 27 53 27.900002 53 29 L 53 33 Z"/>
    <g id="g2">
        <path id="path9" fill="#4f5d73" stroke="none" d="M 27 57 C 27 60.299999 29.700001 63 33 63 L 57 63 C 60.299999 63 63 60.299999 63 57 L 63 55 L 27 55 L 27 57 Z"/>
    </g>
</svg>
