<?xml version="1.0" encoding="UTF-8"?>
<!-- Generated by Pixelmator Pro 3.3.11 -->
<svg width="64" height="64" viewBox="0 0 64 64" xmlns="http://www.w3.org/2000/svg">
    <g id="Layer2">
        <g id="Layer1-2">
            <path id="Path" fill="#000000" stroke="none" d="M 56.220001 28.310001 C 56.718681 28.258636 57.221317 28.258636 57.720001 28.310001 C 58.160001 28.370001 58.320001 28.660001 58.200001 29.18 C 58.015881 29.881012 57.517311 30.457138 56.849998 30.740002 C 55.960873 31.106525 55.019108 31.329308 54.060001 31.400002 C 53.823036 31.447117 53.581497 31.467247 53.34 31.460003 C 52.580001 34.460003 51.94 37.510002 51.419998 40.610001 C 50.920456 43.452007 50.689438 46.334713 50.73 49.220001 C 50.722393 51.570499 51.17067 53.900169 52.049999 56.080002 C 52.774109 57.892982 54.288418 59.274651 56.16 59.830002 C 56.880001 60.150004 57.240002 60.510005 57.240002 60.910004 C 57.197277 61.308083 56.990753 61.670403 56.669998 61.910004 C 56.262352 62.26017 55.736931 62.442459 55.200001 62.419998 C 53.448154 62.44326 51.721928 61.997894 50.200001 61.130005 C 48.864441 60.314003 47.762199 59.166977 47 57.800003 C 46.154774 56.245697 45.595882 54.55209 45.349998 52.800003 C 45.045887 50.761623 44.928734 48.699711 45 46.640003 C 45.070969 44.29501 45.291416 41.956932 45.66 39.640003 C 46.04 37.200003 46.51 34.720002 47.07 32.200001 C 43.31 32.680002 39.69 33.240002 36.209999 33.880001 C 35.349998 34.966668 34.489999 36.033335 33.630001 37.080002 C 32.77 38.126668 31.893333 39.183334 31 40.25 C 29.771984 41.66148 28.459579 42.997261 27.07 44.25 C 25.624256 45.578941 24.068714 46.783234 22.42 47.850002 C 20.801363 48.89933 19.070646 49.76469 17.26 50.43 C 15.536215 51.077911 13.70005 51.373737 11.86 51.300003 C 10.359122 51.279907 8.874622 50.985039 7.48 50.43 C 6.242194 49.94302 5.111124 49.219543 4.15 48.300003 C 3.267887 47.477146 2.613394 46.440289 2.25 45.290001 C 1.900489 44.074631 1.900489 42.785374 2.25 41.570004 C 2.900028 39.022305 4.29225 36.72514 6.25 34.970001 C 8.280894 33.234734 10.715551 32.03804 13.33 31.490002 C 14.21 31.290002 14.78 31.410002 15.04 31.850002 C 15.3 32.290002 14.953334 32.850002 14 33.530003 C 12.961818 34.046139 12.010404 34.720898 11.18 35.530003 C 10.368311 36.31506 9.662369 37.20253 9.08 38.170002 C 8.558661 39.072247 8.193521 40.056095 8 41.080002 C 7.786242 41.919949 7.786242 42.800056 8 43.640003 C 8.249233 44.445774 8.754883 45.148067 9.440001 45.640003 C 10.348159 46.240341 11.41137 46.563473 12.5 46.570004 C 13.381433 46.646969 14.269184 46.606617 15.14 46.450001 C 16.163778 46.277363 17.168457 46.0061 18.139999 45.640003 C 19.182661 45.242344 20.186831 44.750298 21.139999 44.170002 C 22.160454 43.570164 23.11853 42.870029 24 42.080002 C 25.04 41.120003 26.1 40.050003 27.18 38.870003 C 28.26 37.690002 29.359999 36.426669 30.48 35.080002 L 28.139999 35.620003 C 27.82 35.700002 27.486666 35.770002 27.139999 35.830002 C 26.843035 35.890339 26.536966 35.890339 26.24 35.830002 C 25.998823 35.78801 25.801697 35.614071 25.73 35.380001 C 25.666929 35.010002 25.730339 34.629543 25.91 34.300003 C 26.23 33.633336 26.529999 33.023336 26.809999 32.470001 C 27.195236 31.858826 27.833389 31.451725 28.549999 31.360001 C 29.47 31.12 30.41 30.910001 31.370001 30.730003 L 34.369999 30.160004 C 35.936667 28.106669 37.480001 26.020002 39 23.900002 C 40.519999 21.780001 41.98 19.700002 43.380001 17.660004 C 44.78 15.660004 46.113333 13.730003 47.380001 11.870003 C 48.646666 10.010002 49.796666 8.37 50.830002 6.949997 C 50.532822 6.649017 50.10614 6.514275 49.689999 6.590004 C 49.059536 6.658165 48.442757 6.819946 47.860001 7.07 C 47.088802 7.384064 46.337414 7.744728 45.610001 8.150002 L 43.150002 9.529999 C 41.329952 10.601013 39.307182 11.282082 37.209999 11.529999 C 35.661034 11.726875 34.087563 11.509483 32.650002 10.900002 C 31.456263 10.363518 30.474783 9.445366 29.860001 8.290001 C 29.23386 7.092308 29.012812 5.723923 29.23 4.389999 C 29.263113 3.935188 29.381863 3.490723 29.58 3.080002 C 29.74 2.820002 29.91 2.710002 30.09 2.75 C 30.320087 2.825325 30.519897 2.972557 30.66 3.169998 C 30.866222 3.420929 31.028511 3.704941 31.139999 4.010002 C 31.475647 4.867561 32.199898 5.513817 33.09 5.75 C 34.174179 6.042702 35.302826 6.134216 36.419998 6.019997 C 37.835613 5.89798 39.239754 5.667305 40.619999 5.330002 C 42.140001 4.970001 43.680002 4.56 45.240002 4.099998 L 49.77 2.75 C 51.058659 2.337799 52.371052 2.00386 53.700001 1.75 C 54.620001 1.590001 55.310001 1.450002 55.77 1.330002 C 56.240143 1.210541 56.736809 1.252808 57.18 1.449997 C 57.565067 1.622337 57.906734 1.878586 58.18 2.199997 C 58.600834 2.64621 58.982258 3.128014 59.32 3.639999 C 59.68 4.179998 60.013334 4.709999 60.32 5.230003 C 60.548573 5.593269 60.692142 6.003479 60.740002 6.43 C 60.332073 8.415154 59.821384 10.377792 59.209999 12.309998 C 58.543332 14.429998 57.876666 16.57 57.209999 18.730003 C 56.769999 20.010002 56.29 21.470001 55.77 23.110001 C 55.250001 24.75 54.730001 26.510001 54.209999 28.390003 C 54.57 28.390003 54.919999 28.390003 55.259998 28.390003 Z M 54.119999 8.870003 C 51.6 12.270002 49.16 15.700002 46.799999 19.160004 C 44.439999 22.62 41.999999 26.07 39.48 29.510002 C 40.880001 29.350001 42.270002 29.21 43.650002 29.09 C 45.030001 28.970002 46.420001 28.870003 47.82 28.790001 C 48.779999 25.030001 49.829999 21.43 50.970001 17.989998 C 52.110001 14.550001 53.16 11.510002 54.119999 8.870003 Z"/>
        </g>
    </g>
</svg>
