<svg xmlns="http://www.w3.org/2000/svg" viewBox="0 0 330.08 96.92"><g id="Layer_2" data-name="Layer 2"><g id="Layer_1-2" data-name="Layer 1"><path d="M54.22,35.23a7.32,7.32,0,0,1,1.5,0q.66.09.48.87a2.34,2.34,0,0,1-1.35,1.56,9.07,9.07,0,0,1-2.79.66,3.2,3.2,0,0,1-.72.06q-1.14,4.5-1.92,9.15a46,46,0,0,0-.69,8.61A18.18,18.18,0,0,0,50.05,63a6.38,6.38,0,0,0,4.11,3.75q1.08.48,1.08,1.08a1.44,1.44,0,0,1-.57,1,2.12,2.12,0,0,1-1.47.51,9.83,9.83,0,0,1-5-1.29A9.09,9.09,0,0,1,45,64.72a14.76,14.76,0,0,1-1.65-5A33.82,33.82,0,0,1,43,53.56a55.18,55.18,0,0,1,.66-7q.57-3.66,1.41-7.44-5.64.72-10.86,1.68Q32.92,42.43,31.63,44T29,47.17a46.32,46.32,0,0,1-3.93,4,34.83,34.83,0,0,1-4.65,3.6,25.92,25.92,0,0,1-5.16,2.58,13.78,13.78,0,0,1-5.4.87,12.29,12.29,0,0,1-4.38-.87,10.24,10.24,0,0,1-3.33-2.13A7,7,0,0,1,.25,52.21a6.73,6.73,0,0,1,0-3.72,13.27,13.27,0,0,1,4-6.6,15.93,15.93,0,0,1,7.08-3.48q1.32-.3,1.71.36T12,40.45a11.16,11.16,0,0,0-2.82,2,13,13,0,0,0-2.1,2.64A9.25,9.25,0,0,0,6,48,5.19,5.19,0,0,0,6,50.56a3.87,3.87,0,0,0,1.44,2,5.61,5.61,0,0,0,3.06.93,10,10,0,0,0,2.64-.12,16.1,16.1,0,0,0,3-.81,18.33,18.33,0,0,0,3-1.47A17.8,17.8,0,0,0,22,49q1.56-1.44,3.18-3.21T28.48,42l-2.34.54q-.48.12-1,.21a2.26,2.26,0,0,1-.9,0,.65.65,0,0,1-.51-.45,1.67,1.67,0,0,1,.18-1.08q.48-1,.9-1.83a2.42,2.42,0,0,1,1.74-1.11q1.38-.36,2.82-.63l3-.57Q34.72,34,37,30.82t4.38-6.24q2.1-3,4-5.79t3.45-4.92a1.28,1.28,0,0,0-1.14-.36,6.38,6.38,0,0,0-1.83.48,20.54,20.54,0,0,0-2.25,1.08l-2.46,1.38a15.24,15.24,0,0,1-5.94,2,8.83,8.83,0,0,1-4.56-.63,5.9,5.9,0,0,1-2.79-2.61,6.25,6.25,0,0,1-.63-3.9A3.62,3.62,0,0,1,27.58,10q.24-.39.51-.33a1.13,1.13,0,0,1,.57.42,2.88,2.88,0,0,1,.48.84,2.89,2.89,0,0,0,1.95,1.74,9.19,9.19,0,0,0,3.33.27,27.72,27.72,0,0,0,4.2-.69q2.28-.54,4.62-1.23l4.53-1.35a33.58,33.58,0,0,1,3.93-1q1.38-.24,2.07-.42a2.16,2.16,0,0,1,1.41.12,2.83,2.83,0,0,1,1,.75,10.63,10.63,0,0,1,1.14,1.44q.54.81,1,1.59a2.85,2.85,0,0,1,.42,1.2,58.57,58.57,0,0,1-1.53,5.88q-1,3.18-2,6.42-.66,1.92-1.44,4.38t-1.56,5.28q.54,0,1.05,0Zm-2.1-19.44q-3.78,5.1-7.32,10.29T37.48,36.43q2.1-.24,4.17-.42t4.17-.3q1.44-5.64,3.15-10.8T52.12,15.79Z"/><path d="M84,36.32V39.6a86.27,86.27,0,0,1-8.24,7.55c-2.4,1.86-4,2.79-4.79,2.79-1.47,0-2.2-.82-2.2-2.46a19.7,19.7,0,0,1,1.1-5.87q1.1-3.42,2.19-6.18a12.86,12.86,0,0,0,1.1-3.71,2.34,2.34,0,0,0-.33-1.38A1,1,0,0,0,72,29.9c-1.11,0-2.31.78-3.6,2.33A25.89,25.89,0,0,0,65,37.87a60.13,60.13,0,0,0-4.16,11.22h-5.6A54.2,54.2,0,0,1,57,38.61a86.94,86.94,0,0,1,3.14-10.82,3.21,3.21,0,0,1,1.59-1.87,7,7,0,0,1,2.8-.47h2q-2.13,7.38-3.16,10.64A33,33,0,0,1,69,28.64a17.29,17.29,0,0,1,4-3,8.45,8.45,0,0,1,4-1.18c1.92,0,2.87,1.15,2.87,3.43q0,1.65-2.06,7.78a56.17,56.17,0,0,0-2.07,6.77c0,.42.12.63.37.63a1.9,1.9,0,0,0,1-.4,44.78,44.78,0,0,0,3.48-3.13Q83.44,36.82,84,36.32Z"/><path d="M85.08,27.56H83.85a2.67,2.67,0,0,1-.41-.05l-.34-.09a1,1,0,0,1-.31-.14,2.19,2.19,0,0,1-.23-.21.89.89,0,0,1-.21-.63,2.66,2.66,0,0,1,0-.51c.08-.19.43-.33,1.06-.41l2.46-.23q1.38-4.58,1.93-5.82c.37-.83.73-1.58,1.07-2.24a7.57,7.57,0,0,1,1-1.55c.32-.37.7-.78,1.13-1.21a4.56,4.56,0,0,1,1.34-1,8.18,8.18,0,0,1,3.43-.76l.12.11c0,.08-.26.84-.76,2.29q-2.52,7.2-3.37,10.14l8.93-.41-.64,1.05q-.73,1.35-8.76,1.35s-.32,1.08-.91,3.25q-2.64,9.69-2.64,11.75c0,1.39.16,2.18.47,2.39a1.78,1.78,0,0,0,1,.3q1.58,0,11.16-9.08v3.31l-2.75,2.55L94.85,44.3q-1,.93-2.52,2.16a25.06,25.06,0,0,1-2.56,1.87A9.53,9.53,0,0,1,85,49.94c-2.32,0-3.49-1.62-3.49-4.86a28.27,28.27,0,0,1,.84-6.28c.55-2.42,1-4.39,1.42-5.92S84.61,29.57,85.08,27.56Z"/><path d="M113.94,6.38l-7.68,27.77a22.35,22.35,0,0,1,5.68-6.84,11.09,11.09,0,0,1,6.86-2.83c1.91,0,2.87,1.15,2.87,3.43q0,1.23-1.89,6.73t-1.89,7.63c0,.58.19.88.56.88s1.38-1,3.38-3,3.39-3.36,4.18-4v3.28q-9.24,10.58-12.07,10.57c-1.25,0-1.88-.74-1.88-2.22a9,9,0,0,1,.12-1.13,35.14,35.14,0,0,1,.94-3.59c1.57-5.26,2.37-9.07,2.37-11.41A1.69,1.69,0,0,0,114,29.91q-2.64-.12-5.59,3.76a21.85,21.85,0,0,0-3.86,7.59q-1,3.83-1.63,5.43a5.71,5.71,0,0,1-1.55,2.4H96.77q.49-3.63,6.91-27.3l2.14-8c.92-3.46,1.78-5.64,2.58-6.56a2.58,2.58,0,0,1,1.84-.91c.77-.06,1.52-.09,2.27-.09A5,5,0,0,1,113.94,6.38Z"/><path d="M142.32,24.87a1.37,1.37,0,0,1-.64,1.25q-5.84,0-8.91,3.34a10.33,10.33,0,0,0-2.87,7.11,10.22,10.22,0,0,0,1.75,6.28,5.15,5.15,0,0,0,4.26,2.35q2.52,0,4.86-2.64a9.43,9.43,0,0,1-3.38-3.63,9.78,9.78,0,0,1-1.19-4.59,5.2,5.2,0,0,1,1.41-3.78,5.42,5.42,0,0,1,4.07-1.45,4.8,4.8,0,0,1,3.88,1.44,5.26,5.26,0,0,1,1.22,3.51,11.57,11.57,0,0,1-2.73,7.59,3.44,3.44,0,0,0,1.26.3,2.86,2.86,0,0,0,1.1-.25,5.41,5.41,0,0,0,1.3-.88c.49-.42.92-.82,1.29-1.19s.91-.93,1.62-1.67,1.29-1.35,1.78-1.82v3.23A29.67,29.67,0,0,1,148.46,43a5.07,5.07,0,0,1-3,1.08,8,8,0,0,1-2.65-.41,18.53,18.53,0,0,1-5.35,4.5,12.87,12.87,0,0,1-6.4,1.74,6.92,6.92,0,0,1-6.76-4.48,13.39,13.39,0,0,1-1.15-5.65,13.66,13.66,0,0,1,5.06-11.22q5.06-4.11,13.43-4.11C142.07,24.48,142.28,24.61,142.32,24.87ZM144,34.62c0-1.8-.79-2.69-2.38-2.69s-2.39.94-2.39,2.84a7,7,0,0,0,.8,3.09,6.59,6.59,0,0,0,2.19,2.53,14.69,14.69,0,0,0,1.18-2.68A9.44,9.44,0,0,0,144,34.62Z"/><path d="M176.92,36.32V39.6a86.27,86.27,0,0,1-8.24,7.55c-2.4,1.86-4,2.79-4.79,2.79-1.47,0-2.2-.82-2.2-2.46a19.7,19.7,0,0,1,1.1-5.87q1.1-3.42,2.2-6.18a13.06,13.06,0,0,0,1.09-3.71,2.34,2.34,0,0,0-.33-1.38,1,1,0,0,0-.81-.44c-1.11,0-2.31.78-3.6,2.33a25.89,25.89,0,0,0-3.46,5.64,60.13,60.13,0,0,0-4.16,11.22h-5.6a54.2,54.2,0,0,1,1.79-10.48,86.94,86.94,0,0,1,3.14-10.82,3.21,3.21,0,0,1,1.59-1.87,7,7,0,0,1,2.8-.47h2q-2.13,7.38-3.16,10.64a33,33,0,0,1,5.68-7.45,17.29,17.29,0,0,1,4-3,8.45,8.45,0,0,1,4-1.18c1.92,0,2.87,1.15,2.87,3.43q0,1.65-2.06,7.78a56.17,56.17,0,0,0-2.07,6.77c0,.42.12.63.37.63a1.9,1.9,0,0,0,1-.4,42.83,42.83,0,0,0,3.48-3.13Q176.33,36.82,176.92,36.32Z"/><path d="M199.61,37.69c1.87-2,4.81-.93,3.95.09L192.42,48.3v.12a25.65,25.65,0,0,1-2.12,6.68A17,17,0,0,1,187,59.82q-3.72,3.6-7.62,3.6a6.3,6.3,0,0,1-3.78-1.29,3.72,3.72,0,0,1-1.75-3.05,4.09,4.09,0,0,1,1.18-3,14.87,14.87,0,0,1,3.39-2.45l8.82-5.59,1-4.69q-6.82,6.57-11.51,6.56a2.79,2.79,0,0,1-2.62-1.4,7.24,7.24,0,0,1-.81-3.64q0-3.72,5.27-18.72c.08-.48,1.66-.73,4.75-.73h1s-.4,1.32-1.21,3.84q-3.6,11.34-3.6,13.45c0,1.4.66,2.11,2,2.11a8.75,8.75,0,0,0,4.15-1.44,7.84,7.84,0,0,0,2.89-2.29l3.19-12.18c.43-1.66,1-2.68,1.76-3.05a6.27,6.27,0,0,1,2.72-.44h2q-.67,1.9-1.86,6.27l-1.68,6.18c-.72,2.64-1.22,4.5-1.5,5.6l-.23.79m-6,7.38-5.42,3.43c-.64.39-1.15.73-1.53,1a5,5,0,0,0-1.13,1.22,2.84,2.84,0,0,0-.56,1.67c0,1.6.72,2.4,2.17,2.4a4.81,4.81,0,0,0,4.22-2.67A19.11,19.11,0,0,0,186.91,51.67Z"/><path d="M244.38,15.12q-3.3,5.4-6,10.62a94.13,94.13,0,0,0-4.62,10.2,65.45,65.45,0,0,0-2.88,9.66,34.23,34.23,0,0,0-.75,9q0,.54,0,.93a.92.92,0,0,1-.09.57q-.12.18-.48.06a6.47,6.47,0,0,1-1.14-.6A9,9,0,0,1,226,53.31a8.4,8.4,0,0,1-1.44-2.61,14.54,14.54,0,0,1,.18-7.26,60.49,60.49,0,0,1,3.18-9.54Q230,28.74,233,23.1T238.86,12q.24-.54.66-1.29t.81-1.59A13.7,13.7,0,0,0,241,7.41a5.75,5.75,0,0,0,.27-1.71q-.06-1.5-1.92-1.08a16.8,16.8,0,0,0-4.65,2.1,55,55,0,0,0-6,4.29,69.4,69.4,0,0,0-6.06,5.49,44.74,44.74,0,0,0-4.8,5.73,10.8,10.8,0,0,0-2.16,5q-.06.72-1,.33a5.87,5.87,0,0,1-1.92-1.44,8,8,0,0,1-1.59-2.55,4.09,4.09,0,0,1-.06-3A20.63,20.63,0,0,1,215,14.19a39.25,39.25,0,0,1,6.06-5.55,54,54,0,0,1,7.17-4.5A72.85,72.85,0,0,1,235.56.78a11.6,11.6,0,0,1,2.49-.63A13.55,13.55,0,0,1,240.9,0a13.42,13.42,0,0,1,2.82.48,7.78,7.78,0,0,1,2.43,1.14,5.36,5.36,0,0,1,1.65,1.89,4.89,4.89,0,0,1,.48,2.7,9.77,9.77,0,0,1-.42,2.22,21.21,21.21,0,0,1-.9,2.43,16.9,16.9,0,0,1-1.23,2.31q-.69,1.08-1.29,1.86Z"/><path d="M265.25,36.32V39.6A87.45,87.45,0,0,1,257,47.15q-3.58,2.79-4.79,2.79c-1.47,0-2.2-.82-2.2-2.46a19.7,19.7,0,0,1,1.1-5.87q1.09-3.42,2.2-6.18a13.21,13.21,0,0,0,1.1-3.71,2.33,2.33,0,0,0-.34-1.38,1,1,0,0,0-.81-.44c-1.11,0-2.31.78-3.6,2.33a25.89,25.89,0,0,0-3.46,5.64A60.86,60.86,0,0,0,242,49.09h-5.59a54,54,0,0,1,1.78-10.48,88.73,88.73,0,0,1,3.14-10.82,3.19,3.19,0,0,1,1.6-1.87,6.91,6.91,0,0,1,2.79-.47h2q-2.14,7.38-3.17,10.64a33.06,33.06,0,0,1,5.69-7.45,17.46,17.46,0,0,1,3.95-3,8.49,8.49,0,0,1,4-1.18c1.92,0,2.88,1.15,2.88,3.43q0,1.65-2.07,7.78A56.17,56.17,0,0,0,257,42.46c0,.42.13.63.37.63a1.92,1.92,0,0,0,1-.4,45.61,45.61,0,0,0,3.47-3.13C263.7,37.73,264.86,36.65,265.25,36.32Z"/><path d="M274.15,64a7.24,7.24,0,0,1-3.57,1.17,8.28,8.28,0,0,1-2.8-.43,5,5,0,0,1-2.11-1.42,2.9,2.9,0,0,1-.89-1.9,5.92,5.92,0,0,1,.1-1.32,2.58,2.58,0,0,1,.42-.85c.22-.29.39-.53.52-.72a4.48,4.48,0,0,1,.77-.77l.79-.68,1-.77,1-.75,8.11-6.24.94-5a28.53,28.53,0,0,1-6.23,4.5,11,11,0,0,1-4.64,1.15,3.53,3.53,0,0,1-3.24-1.81,8.3,8.3,0,0,1-1.07-4.27,19.21,19.21,0,0,1,.78-5.21,22.2,22.2,0,0,1,2.26-5.29,22.68,22.68,0,0,1,3.44-4.51,15.13,15.13,0,0,1,4.57-3.18,12.72,12.72,0,0,1,5.3-1.19,55.83,55.83,0,0,1,8.85,1.15l-4.48,19c.52-.49,1.32-1.23,2.38-2.24l2.28-2.15c1.17-1.08,2.48-2.4,3.92-4v3.28l-9.2,8.94A25.64,25.64,0,0,1,278,60.7,15.71,15.71,0,0,1,274.15,64Zm2.93-11.43-4.8,4.07c-.12.1-.35.29-.71.56s-.6.48-.76.62-.37.35-.64.64a3.19,3.19,0,0,0-.59.82,5.08,5.08,0,0,0-.53,2.24,2,2,0,0,0,.52,1.6,2.53,2.53,0,0,0,1.65.44q2.34,0,3.83-3A24.71,24.71,0,0,0,277.08,52.52ZM269.64,39.6q0,5.65,2.84,5.66,2.52,0,6.36-4.34l3.4-14.27a15.35,15.35,0,0,0-2.87-.53,6.57,6.57,0,0,0-3.81,1.29,11.52,11.52,0,0,0-3.11,3.26A16.15,16.15,0,0,0,269.64,39.6Z"/><path d="M294.19,49.94a1.65,1.65,0,0,1-1.41-.52c-.25-.36-.44-.65-.58-.9a3,3,0,0,1-.32-1c-.08-.41-.14-.76-.19-1a9.72,9.72,0,0,1-.11-1.19c0-.5,0-.87,0-1.13V43a56.84,56.84,0,0,1,1.57-12.51,76.05,76.05,0,0,1,4-12.66,38.37,38.37,0,0,1,5.72-9.72q3.28-3.93,6.39-3.93a3.73,3.73,0,0,1,3,1.3,5.84,5.84,0,0,1,1.1,3.87,24.31,24.31,0,0,1-.78,5.74,30.93,30.93,0,0,1-2,5.83,55.22,55.22,0,0,1-2.73,5.16,42.11,42.11,0,0,1-3,4.41A54,54,0,0,1,300.11,36l-.76.76a21.84,21.84,0,0,0-1.73,6.75q0,2.19,1,2.19.74,0,4-3.23t6-6.24v3.28a64,64,0,0,1-8.33,7.84A12.07,12.07,0,0,1,294.19,49.94ZM308.78,7.58q-2.05,0-4,5.71A164.8,164.8,0,0,0,300.31,31a30.43,30.43,0,0,0,4.14-5.44,40.85,40.85,0,0,0,3.1-6.16q2.49-6.3,2.49-9.06C310,8.5,309.62,7.58,308.78,7.58Z"/><path d="M330.08,39.48h0a58.21,58.21,0,0,1-8.32,7.8,12,12,0,0,1-7,2.66q-6.63,0-8.26-4.3a12.12,12.12,0,0,1-.62-4.1,19.26,19.26,0,0,1,1.79-8.16A16.33,16.33,0,0,1,312.84,27a12.15,12.15,0,0,1,7.45-2.51q6.91,0,6.92,5.16a7.66,7.66,0,0,1-2.7,5.82,8.7,8.7,0,0,1-6.06,2.47,5.86,5.86,0,0,1-2.81-.79,6.85,6.85,0,0,1-2.49-2.37,11.89,11.89,0,0,0-1.26,5.15c0,4.52,1.64,6.77,4.92,6.77A6.23,6.23,0,0,0,320,45.46a24,24,0,0,0,3.34-2.59c1-.91,2.19-2.11,3.67-3.61l.75-.75A1.37,1.37,0,0,1,330.08,39.48ZM314,32.54c1.48,1.92,3.12,2.87,4.92,2.87a3.59,3.59,0,0,0,2.94-1.67,5.78,5.78,0,0,0,1.25-3.51,3.36,3.36,0,0,0-.69-2.48,2.85,2.85,0,0,0-2-.63,5.26,5.26,0,0,0-2.44.59,6.68,6.68,0,0,0-1.91,1.46A10.16,10.16,0,0,0,314,32.54Z"/><path d="M171.45,73.46a5.41,5.41,0,0,1-.49,2.38,4.91,4.91,0,0,1-1.34,1.73,5.86,5.86,0,0,1-2,1.05,7.81,7.81,0,0,1-2.39.36h-5.49V89.42h-.66V68.18h5.76a10.84,10.84,0,0,1,2.31.26,6.51,6.51,0,0,1,2.12.85,4.7,4.7,0,0,1,1.54,1.62A5,5,0,0,1,171.45,73.46Zm-.66,0a4.51,4.51,0,0,0-.51-2.25A4.17,4.17,0,0,0,169,69.77a5.55,5.55,0,0,0-1.81-.78,8.61,8.61,0,0,0-2-.24h-5.37v9.66h5.52a7.5,7.5,0,0,0,2-.27,5.05,5.05,0,0,0,1.77-.87,4.48,4.48,0,0,0,1.26-1.55A4.93,4.93,0,0,0,170.79,73.46Z"/><path d="M176.88,79.25a5.72,5.72,0,0,1,.86-1.71A6.17,6.17,0,0,1,179,76.26a5.46,5.46,0,0,1,1.56-.79,5.65,5.65,0,0,1,1.74-.27,5.08,5.08,0,0,1,2.4.51,4.18,4.18,0,0,1,1.53,1.35,5.52,5.52,0,0,1,.81,1.89,9.53,9.53,0,0,1,.24,2.13v8.34h-.66V81.14a9.79,9.79,0,0,0-.18-1.8,4.89,4.89,0,0,0-.67-1.74,4.3,4.3,0,0,0-1.34-1.31,4,4,0,0,0-2.13-.52,5.06,5.06,0,0,0-3.88,1.8,6.71,6.71,0,0,0-1.17,2.11,8.6,8.6,0,0,0-.44,2.84v6.9h-.66V66.74h.66V79.25Z"/><path d="M206.46,82.49a8.34,8.34,0,0,1-.52,3,6.89,6.89,0,0,1-1.49,2.33,6.67,6.67,0,0,1-2.29,1.51,7.76,7.76,0,0,1-2.93.54,7.62,7.62,0,0,1-2.91-.54A6.73,6.73,0,0,1,194,87.79a6.87,6.87,0,0,1-1.48-2.33,8.13,8.13,0,0,1-.53-3,8,8,0,0,1,.53-2.95,6.65,6.65,0,0,1,1.48-2.3,6.85,6.85,0,0,1,2.28-1.5,7.62,7.62,0,0,1,2.91-.54,7.76,7.76,0,0,1,2.93.54,6.8,6.8,0,0,1,2.29,1.5,6.67,6.67,0,0,1,1.49,2.3A8.15,8.15,0,0,1,206.46,82.49Zm-.66,0a7.54,7.54,0,0,0-.45-2.61,6.21,6.21,0,0,0-1.3-2.14A6.14,6.14,0,0,0,202,76.29a7.06,7.06,0,0,0-2.75-.52,6.92,6.92,0,0,0-2.73.52,6.15,6.15,0,0,0-2.05,1.45,6.24,6.24,0,0,0-1.31,2.14,7.54,7.54,0,0,0-.45,2.61,7.62,7.62,0,0,0,.45,2.64,6.38,6.38,0,0,0,1.31,2.15,6.45,6.45,0,0,0,2.05,1.45,6.59,6.59,0,0,0,2.73.54,6.71,6.71,0,0,0,2.75-.54,6.43,6.43,0,0,0,2.07-1.45,6.35,6.35,0,0,0,1.3-2.15A7.62,7.62,0,0,0,205.8,82.49Z"/><path d="M215.85,89.69a5,5,0,0,1-.93.09,2.74,2.74,0,0,1-2.31-.91,3.74,3.74,0,0,1-.69-2.3V76.19h-3v-.57h3V71.57h.66v4.05h4v.57h-4V86.57a2.57,2.57,0,0,0,.69,2,2.65,2.65,0,0,0,1.83.62,4.17,4.17,0,0,0,1.53-.27l.09.51A4.21,4.21,0,0,1,215.85,89.69Z"/><path d="M233.73,82.49a8.13,8.13,0,0,1-.53,3,6.57,6.57,0,0,1-3.77,3.84,7.79,7.79,0,0,1-2.93.54,7.62,7.62,0,0,1-2.91-.54,6.73,6.73,0,0,1-2.28-1.51,6.89,6.89,0,0,1-1.49-2.33,8.34,8.34,0,0,1-.52-3,8.15,8.15,0,0,1,.52-2.95,6.67,6.67,0,0,1,1.49-2.3,6.85,6.85,0,0,1,2.28-1.5,7.62,7.62,0,0,1,2.91-.54,7.79,7.79,0,0,1,2.93.54,6.8,6.8,0,0,1,2.29,1.5,6.51,6.51,0,0,1,1.48,2.3A8,8,0,0,1,233.73,82.49Zm-.66,0a7.54,7.54,0,0,0-.45-2.61,6.1,6.1,0,0,0-3.38-3.59,7.45,7.45,0,0,0-5.47,0,6.05,6.05,0,0,0-2.05,1.45,6.24,6.24,0,0,0-1.31,2.14,7.54,7.54,0,0,0-.45,2.61,7.62,7.62,0,0,0,.45,2.64,6.21,6.21,0,0,0,3.36,3.6,7.2,7.2,0,0,0,5.47,0,6.47,6.47,0,0,0,2.08-1.45,6.35,6.35,0,0,0,1.3-2.15A7.62,7.62,0,0,0,233.07,82.49Z"/><path d="M250.65,85.7h-.09a6.12,6.12,0,0,1-1.05,1.79A7.48,7.48,0,0,1,248,88.78a6.82,6.82,0,0,1-1.76.79,6.92,6.92,0,0,1-1.93.27,7.07,7.07,0,0,1-2.78-.55,6.58,6.58,0,0,1-2.19-1.54,6.91,6.91,0,0,1-1.42-2.3,8.07,8.07,0,0,1-.51-2.9,8.17,8.17,0,0,1,.51-2.91,7.09,7.09,0,0,1,1.42-2.34,6.46,6.46,0,0,1,2.19-1.55,7.07,7.07,0,0,1,2.78-.55,6.61,6.61,0,0,1,6.21,4.17h.09V75.62h.66v13a14,14,0,0,1-.35,3.15,7.5,7.5,0,0,1-1.14,2.64,5.69,5.69,0,0,1-2.1,1.81,6.82,6.82,0,0,1-3.22.68,8.38,8.38,0,0,1-3.48-.68,7.39,7.39,0,0,1-2.61-1.9l.45-.45a6.84,6.84,0,0,0,2.59,1.87,7.93,7.93,0,0,0,3.05.59,6.17,6.17,0,0,0,3-.66A5.12,5.12,0,0,0,249.39,94a7.4,7.4,0,0,0,1-2.48,15.15,15.15,0,0,0,.28-2.89Zm-12.54-3.15a7.68,7.68,0,0,0,.43,2.58,6.62,6.62,0,0,0,1.25,2.16,5.85,5.85,0,0,0,2,1.47,6.08,6.08,0,0,0,2.6.54,5.89,5.89,0,0,0,2.53-.54,6.21,6.21,0,0,0,2-1.47,7,7,0,0,0,1.32-2.16,7.34,7.34,0,0,0,0-5.22,6.81,6.81,0,0,0-1.32-2.15,6.46,6.46,0,0,0-2-1.45,5.89,5.89,0,0,0-2.53-.54,5.8,5.8,0,0,0-2.6.56,6,6,0,0,0-2,1.48A6.62,6.62,0,0,0,238.54,80,7.68,7.68,0,0,0,238.11,82.55Z"/><path d="M260.13,76.14A4.79,4.79,0,0,1,263,75.2h.27l.27,0v.57a.91.91,0,0,0-.23,0h-.16a4.14,4.14,0,0,0-2.25.58,4.86,4.86,0,0,0-1.53,1.53,7.25,7.25,0,0,0-.89,2.11,9.44,9.44,0,0,0-.28,2.29v7.14h-.66V79.1c0-.22,0-.49,0-.81s0-.65,0-1,0-.64-.05-.94,0-.55-.06-.75H258c0,.2,0,.45,0,.75s0,.62,0,1,0,.7,0,1,0,.62,0,.88h.06A5.49,5.49,0,0,1,260.13,76.14Z"/><path d="M276.06,86.3c0,.52,0,1.07.07,1.66s.11,1.08.17,1.46h-.63a6,6,0,0,1-.09-.74c0-.28-.05-.58-.08-.89s-.05-.62-.06-.92,0-.55,0-.75h-.09a4.86,4.86,0,0,1-2.07,2.8,5.78,5.78,0,0,1-3.15.92,6,6,0,0,1-1.67-.24,4.74,4.74,0,0,1-1.48-.72,3.52,3.52,0,0,1-1.47-3,3.53,3.53,0,0,1,.76-2.37,5.16,5.16,0,0,1,1.91-1.39,8.53,8.53,0,0,1,2.44-.65,21.11,21.11,0,0,1,2.39-.15h2.4V80.21a4.25,4.25,0,0,0-1.23-3.38A4.73,4.73,0,0,0,271,75.77a5.86,5.86,0,0,0-2.3.45,6.8,6.8,0,0,0-1.9,1.2l-.36-.51a6.69,6.69,0,0,1,2.17-1.28A7.07,7.07,0,0,1,271,75.2a5.4,5.4,0,0,1,3.73,1.21,4.89,4.89,0,0,1,1.37,3.83Zm-.66-4.41h-2.13a20.25,20.25,0,0,0-2.4.14,8.68,8.68,0,0,0-2.31.55,4.41,4.41,0,0,0-1.73,1.2,3.1,3.1,0,0,0-.67,2.1,3.2,3.2,0,0,0,.37,1.61,3.16,3.16,0,0,0,1,1,4.16,4.16,0,0,0,1.29.57,5.44,5.44,0,0,0,1.34.18,5.17,5.17,0,0,0,2.55-.57,4.8,4.8,0,0,0,1.63-1.46,5.44,5.44,0,0,0,.86-1.95,9.42,9.42,0,0,0,.24-2.08Z"/><path d="M282.72,79.37a6.72,6.72,0,0,1,2.56-3.12,6.65,6.65,0,0,1,3.63-1,7.06,7.06,0,0,1,2.8.55,6.44,6.44,0,0,1,2.19,1.54,6.55,6.55,0,0,1,1.4,2.32,8.48,8.48,0,0,1,.5,2.94,8.07,8.07,0,0,1-.51,2.9,6.91,6.91,0,0,1-1.42,2.3,6.58,6.58,0,0,1-2.19,1.54,7.16,7.16,0,0,1-4.7.28,6.91,6.91,0,0,1-1.75-.79,7.15,7.15,0,0,1-1.46-1.29,6.12,6.12,0,0,1-1-1.79h-.09V96.62h-.69v-21h.68v3.75Zm12.42,3.18A7.68,7.68,0,0,0,294.7,80a6.59,6.59,0,0,0-1.24-2.16,6,6,0,0,0-2-1.48,5.76,5.76,0,0,0-2.59-.56,5.92,5.92,0,0,0-2.53.54,6.54,6.54,0,0,0-2,1.45,7,7,0,0,0-1.31,2.15,7.19,7.19,0,0,0,1.31,7.37,6.54,6.54,0,0,0,2,1.45,5.92,5.92,0,0,0,2.53.54,5.94,5.94,0,0,0,4.55-2,6.55,6.55,0,0,0,1.24-2.15A7.68,7.68,0,0,0,295.14,82.55Z"/><path d="M301.44,79.25a5.7,5.7,0,0,1,.85-1.71,6.21,6.21,0,0,1,1.28-1.28,5.46,5.46,0,0,1,1.56-.79,5.65,5.65,0,0,1,1.74-.27,5.08,5.08,0,0,1,2.4.51,4.18,4.18,0,0,1,1.53,1.35,5.52,5.52,0,0,1,.81,1.89,9.53,9.53,0,0,1,.24,2.13v8.34h-.66V81.14a9.79,9.79,0,0,0-.18-1.8,4.91,4.91,0,0,0-.68-1.74A4.27,4.27,0,0,0,309,76.29a4,4,0,0,0-2.13-.52,5.06,5.06,0,0,0-3.89,1.8,6.71,6.71,0,0,0-1.17,2.11,8.6,8.6,0,0,0-.43,2.84v6.9h-.66V66.74h.66V79.25Z"/><path d="M320,94a4.87,4.87,0,0,1-1.28,2,3,3,0,0,1-2.05.71,3.9,3.9,0,0,1-.63-.06,3.27,3.27,0,0,1-.6-.15l.18-.57a3.9,3.9,0,0,0,.49.12,3.34,3.34,0,0,0,.62.06,2.34,2.34,0,0,0,1.09-.24,2.73,2.73,0,0,0,.8-.62,3.55,3.55,0,0,0,.55-.85c.15-.32.29-.64.41-1l1.32-3.6-5.46-14.19h.72l5.07,13.44,4.89-13.44h.72Z"/></g></g></svg>