<?xml version="1.0" standalone="no"?>
<!DOCTYPE svg PUBLIC "-//W3C//DTD SVG 20010904//EN"
 "http://www.w3.org/TR/2001/REC-SVG-20010904/DTD/svg10.dtd">
<svg version="1.0" xmlns="http://www.w3.org/2000/svg"
 width="700.000000pt" height="700.000000pt" viewBox="0 0 700.000000 700.000000"
 preserveAspectRatio="xMidYMid meet">
<metadata>
Created by potrace 1.14, written by Peter Selinger 2001-2017
</metadata>
<g transform="translate(0.000000,700.000000) scale(0.100000,-0.100000)"
fill="#000000" stroke="none">
<path d="M6005 6835 c-60 -13 -123 -26 -140 -29 -95 -14 -247 -54 -585 -155
-416 -125 -759 -220 -854 -237 -16 -3 -32 -7 -36 -9 -4 -2 -20 -6 -36 -9 -16
-3 -68 -12 -115 -20 -48 -8 -108 -18 -135 -21 -27 -3 -66 -8 -87 -11 -52 -8
-220 -7 -270 1 -69 12 -78 14 -136 31 -53 15 -116 56 -153 99 -10 11 -33 52
-53 90 -42 83 -51 96 -87 119 -54 35 -88 -2 -114 -122 -38 -184 7 -410 111
-547 177 -235 508 -332 875 -256 139 29 125 25 215 56 130 43 244 100 560 280
108 61 246 125 335 155 87 30 209 33 238 7 21 -19 21 -19 -44 -109 -36 -50
-201 -287 -367 -527 -165 -240 -340 -492 -388 -561 -48 -69 -107 -153 -131
-188 -121 -176 -527 -746 -561 -787 -4 -5 -71 -94 -148 -197 -109 -145 -146
-188 -167 -192 -15 -3 -112 -22 -217 -41 -394 -75 -495 -106 -552 -167 -35
-37 -143 -264 -150 -313 -5 -38 -2 -47 20 -69 14 -14 38 -26 52 -27 14 -1 33
-2 43 -2 14 -1 111 16 162 29 114 27 234 53 236 51 2 -2 -7 -14 -19 -27 -12
-14 -60 -70 -107 -125 -47 -55 -87 -102 -90 -105 -4 -3 -49 -52 -100 -110
-128 -143 -327 -342 -428 -427 -156 -134 -374 -265 -567 -341 -106 -42 -267
-89 -337 -98 -24 -3 -62 -9 -84 -13 -67 -12 -299 -3 -367 14 -154 39 -273 129
-331 250 -26 53 -30 73 -32 170 -3 113 2 144 43 280 56 180 155 330 333 503
64 62 235 183 276 196 31 10 122 100 129 129 17 65 -21 107 -98 111 -56 4
-231 -40 -354 -87 -380 -147 -675 -406 -838 -735 -188 -381 -180 -694 27 -944
62 -75 58 -71 128 -129 166 -138 372 -229 605 -266 62 -10 370 -11 445 -1 293
38 681 210 1020 451 78 56 260 197 286 222 6 5 51 46 99 90 188 171 367 360
544 575 57 69 120 145 141 170 21 25 99 121 174 214 75 94 142 171 149 172 7
1 27 5 45 8 17 3 47 8 65 11 17 3 55 10 82 15 28 5 64 12 80 14 17 3 45 8 63
11 17 3 47 7 65 10 17 3 43 7 57 10 14 2 45 7 70 11 51 7 71 10 120 18 19 3
70 10 113 16 43 7 88 13 100 15 12 2 76 11 142 20 66 8 132 17 148 19 15 3 25
1 23 -2 -2 -4 -7 -23 -10 -42 -3 -19 -14 -75 -25 -125 -11 -49 -22 -103 -25
-120 -5 -31 -7 -40 -31 -165 -8 -41 -17 -91 -20 -110 -7 -44 -23 -136 -30
-175 -10 -57 -43 -300 -50 -370 -4 -38 -8 -80 -10 -93 -26 -168 -26 -772 0
-935 2 -12 6 -44 10 -72 29 -235 122 -499 236 -666 173 -255 456 -406 796
-424 127 -7 215 31 255 108 31 61 19 99 -45 142 -28 19 -57 35 -64 35 -7 0
-38 12 -70 26 -149 68 -259 170 -333 307 -32 59 -100 239 -115 306 -13 53 -45
213 -51 251 -10 66 -13 600 -3 705 13 143 27 273 36 330 3 22 7 49 8 60 2 11
8 47 14 80 6 33 13 74 16 90 11 64 16 93 49 275 2 14 21 102 41 195 20 94 38
175 39 180 1 6 17 73 35 151 l34 141 101 12 c174 20 311 67 368 128 32 34 67
108 68 144 0 14 -9 34 -21 45 -23 21 -92 23 -312 12 -96 -5 -107 -4 -103 11 3
9 21 75 41 146 48 168 148 492 224 722 33 101 92 285 131 410 72 230 141 451
167 532 25 80 110 405 128 495 22 106 16 141 -46 243 -120 198 -236 340 -309
378 -53 27 -140 27 -265 0z m-131 -931 c-90 -247 -360 -1053 -413 -1229 -18
-60 -46 -155 -62 -210 -17 -55 -32 -110 -35 -123 -2 -13 -11 -42 -18 -65 -8
-23 -31 -105 -51 -182 -72 -271 -60 -245 -108 -247 -23 0 -53 -2 -67 -3 -14
-2 -68 -5 -120 -9 -52 -4 -120 -9 -150 -12 -30 -2 -75 -6 -100 -8 -156 -14
-189 -17 -225 -21 -22 -3 -68 -7 -102 -10 -35 -4 -72 -8 -83 -10 -25 -5 -24
-3 46 90 28 39 140 194 247 345 108 151 205 289 217 305 19 27 243 350 418
605 85 124 373 532 387 547 5 6 64 86 129 177 66 91 121 164 123 162 2 -1 -13
-47 -33 -102z"/>
</g>
</svg>
