<?xml version="1.0" standalone="no"?>
<!DOCTYPE svg PUBLIC "-//W3C//DTD SVG 20010904//EN"
 "http://www.w3.org/TR/2001/REC-SVG-20010904/DTD/svg10.dtd">
<svg version="1.0" xmlns="http://www.w3.org/2000/svg"
 width="700.000000pt" height="700.000000pt" viewBox="0 0 700.000000 700.000000"
 preserveAspectRatio="xMidYMid meet">
<metadata>
Created by potrace 1.14, written by Peter Selinger 2001-2017
</metadata>
<g transform="translate(0.000000,700.000000) scale(0.100000,-0.100000)"
fill="#000000" stroke="none">
<path d="M519 6198 c-69 -11 -84 -15 -129 -37 -102 -49 -166 -119 -212 -230
l-27 -66 2 -2385 2 -2385 32 -67 c55 -118 160 -205 283 -238 68 -18 5985 -18
6061 0 118 29 226 119 282 238 l32 67 3 2375 c2 2206 1 2379 -15 2430 -43 142
-148 244 -292 287 -52 15 -291 16 -3017 17 -1628 1 -2981 -2 -3005 -6z m5868
-202 c127 -42 227 -158 248 -285 10 -58 10 -804 0 -861 -23 -139 -151 -270
-288 -294 -20 -4 -223 -7 -451 -7 -448 0 -460 1 -550 58 -49 32 -65 47 -104
101 -64 90 -66 105 -67 547 0 220 3 422 7 448 23 154 153 284 306 306 26 3
227 6 447 5 351 0 406 -3 452 -18z m-2770 -1140 c531 -37 1015 -421 1178 -936
32 -102 32 -100 51 -225 19 -122 14 -342 -11 -460 -42 -203 -126 -389 -248
-555 -60 -81 -222 -238 -307 -296 -250 -171 -494 -244 -805 -239 -283 4 -505
73 -743 232 -106 71 -279 241 -348 343 -113 166 -196 369 -227 554 -16 97 -20
334 -7 406 5 25 11 65 15 90 4 25 20 88 37 140 77 240 213 450 391 605 38 33
74 65 81 70 29 26 179 116 246 147 170 79 300 112 490 124 52 4 97 8 98 10 2
1 9 1 15 -1 7 -2 49 -6 94 -9z m-2352 -2015 c295 -105 430 -436 294 -719 -145
-302 -529 -389 -792 -181 -154 122 -226 322 -187 516 38 187 195 350 385 400
73 19 226 11 300 -16z"/>
</g>
</svg>
